/* XPM */
static char * favicon_xpm[] = {
"16 16 39 1",
" 	c #FFFFFF",
".	c #C0C0C0",
"+	c #808080",
"@	c #868686",
"#	c #969696",
"$	c #F8F8F8",
"%	c #F1F1F1",
"&	c #555555",
"*	c #000000",
"=	c #040404",
"-	c #330000",
";	c #080808",
">	c #660000",
",	c #E3E3E3",
"'	c #333333",
")	c #0C0C0C",
"!	c #800000",
"~	c #A50021",
"{	c #993333",
"]	c #DDDDDD",
"^	c #424242",
"/	c #393939",
"(	c #996666",
"_	c #CC3333",
":	c #CBCBCB",
"<	c #CC9999",
"[	c #990000",
"}	c #666666",
"|	c #EAEAEA",
"1	c #CCCCCC",
"2	c #663333",
"3	c #161616",
"4	c #B2B2B2",
"5	c #A0A0A4",
"6	c #D7D7D7",
"7	c #CC6666",
"8	c #111111",
"9	c #222222",
"0	c #999999",
"                ",
" .+@@@@@@@@@@@#$",
"%&*=--=--;->>->%",
",'=;--)--!~~~~{%",
"]^/////&(_____>:",
"%%%%%%$ <{__~>':",
"      $<___!-/. ",
"     ,([__>-}|  ",
"    12!~~>3#$   ",
"   <{~_~>^4%    ",
" |@>!~~{56      ",
"%}->~!~7%,6111:6",
"]&~______{222>2:",
"6/------>----;84",
"19*====;;===;==}",
"]50000###@@@@@+#"};
